<mxfile host="Electron" modified="2024-02-14T13:01:25.411Z" agent="Mozilla/5.0 (Macintosh; Intel Mac OS X 10_15_7) AppleWebKit/537.36 (KHTML, like Gecko) draw.io/23.0.2 Chrome/120.0.6099.109 Electron/28.1.0 Safari/537.36" etag="OXmTXJXcZucH6wo7dp55" version="23.0.2" type="device">
  <diagram name="Page-1" id="sjqS4lgvRTxpSPtw5l2J">
    <mxGraphModel dx="1114" dy="829" grid="1" gridSize="10" guides="1" tooltips="1" connect="1" arrows="1" fold="1" page="1" pageScale="1" pageWidth="1200" pageHeight="1920" math="0" shadow="0">
      <root>
        <mxCell id="0" />
        <mxCell id="1" parent="0" />
        <mxCell id="4OenRbD0G-R5Z8dhmGWM-1" value="" style="rounded=0;whiteSpace=wrap;html=1;strokeWidth=3;fillColor=#c0c0c0;" vertex="1" parent="1">
          <mxGeometry x="130" y="70" width="20" height="52.5" as="geometry" />
        </mxCell>
        <mxCell id="4OenRbD0G-R5Z8dhmGWM-2" value="" style="rounded=0;whiteSpace=wrap;html=1;strokeWidth=3;fillColor=#c0c0c0;" vertex="1" parent="1">
          <mxGeometry x="80" y="50" width="120" height="10" as="geometry" />
        </mxCell>
        <mxCell id="4OenRbD0G-R5Z8dhmGWM-3" value="" style="rounded=1;whiteSpace=wrap;html=1;strokeWidth=3;fillColor=#c0c0c0;" vertex="1" parent="1">
          <mxGeometry x="125" y="40" width="30" height="30" as="geometry" />
        </mxCell>
        <mxCell id="4OenRbD0G-R5Z8dhmGWM-4" value="" style="rounded=0;whiteSpace=wrap;html=1;strokeWidth=3;fillColor=#c0c0c0;" vertex="1" parent="1">
          <mxGeometry x="80" y="130" width="120" height="10" as="geometry" />
        </mxCell>
        <mxCell id="4OenRbD0G-R5Z8dhmGWM-5" value="" style="rounded=1;whiteSpace=wrap;html=1;strokeWidth=3;fillColor=#c0c0c0;" vertex="1" parent="1">
          <mxGeometry x="125" y="120" width="30" height="30" as="geometry" />
        </mxCell>
      </root>
    </mxGraphModel>
  </diagram>
</mxfile>
